ffmpeg started on 2026-03-28 at 16:08:27
Report written to "D:\Convert\FFMetrics\reports\psnr_report-6.txt"
Log level: 32
Command line:
ffmpeg -hide_banner -nostdin -r 24000/1001 -i "F:\\\xc0\xed\xe8\xec\xe5\\\xce\xed\xe3\xee\xe8\xed\xe3\xe8\\!_40_\xce\xf1\xe5\xed\xfc_2025\\JamClub\\\xcc\xeb\xe0\xe4\xf8\xe0\xff \xf1\xe5\xf1\xf2\xf0\xe0 \xec\xee\xe5\xe3\xee \xe4\xf0\xf3\xe3\xe0 \xe4\xee\xf1\xe0\xe6\xe4\xe0\xe5\xf2\\JamClub_Tomodachi_no_Imouto_ga_Ore_ni_dake_Uzai_08_1080p_HEVC.mkv" -r 24000/1001 -i "F:\\\xc0\xed\xe8\xec\xe5\\\xce\xed\xe3\xee\xe8\xed\xe3\xe8\\!_40_\xce\xf1\xe5\xed\xfc_2025\\JamClub\\\xcc\xeb\xe0\xe4\xf8\xe0\xff \xf1\xe5\xf1\xf2\xf0\xe0 \xec\xee\xe5\xe3\xee \xe4\xf0\xf3\xe3\xe0 \xe4\xee\xf1\xe0\xe6\xe4\xe0\xe5\xf2\\JamClub_Tomodachi_no_Imouto_ga_Ore_ni_dake_Uzai_08_1080p.mp4" -lavfi "[0:v]settb=AVTB,setpts=PTS-STARTPTS,format=pix_fmts=yuv420p10le,fps=24000/1001,scale=1920:1080:flags=lanczos:param0=3:out_range=limited:out_color_matrix=bt709:out_chroma_loc=left,setsar=1/1,setdar=(1920/1080)*(1/1),colorspace=format=yuv420p10:range=tv:primaries=bt709:trc=bt709:space=bt709:fast=0[main];[1:v]settb=AVTB,setpts=PTS-STARTPTS,format=pix_fmts=yuv420p,fps=24000/1001,scale=1920:1080:flags=lanczos:param0=3:out_range=limited:out_color_matrix=bt709:out_chroma_loc=left,setsar=1/1,setdar=(1920/1080)*(1/1),colorspace=format=yuv420p:range=tv:primaries=bt709:trc=bt709:space=bt709:fast=0[ref];[main][ref]psnr=eof_action=endall:stats_file='D\\:/Convert/FFMetrics/logs/psnr_logfile-6.txt'" -f null -
Input #0, matroska,webm, from 'F:\Аниме\Онгоинги\!_40_Осень_2025\JamClub\Младшая сестра моего друга досаждает\JamClub_Tomodachi_no_Imouto_ga_Ore_ni_dake_Uzai_08_1080p_HEVC.mkv':
  Metadata:
    COMPATIBLE_BRANDS: isomiso2avc1mp41
    MAJOR_BRAND     : isom
    MINOR_VERSION   : 512
    ENCODER         : Lavf61.7.100
  Duration: 00:23:49.66, start: -0.021000, bitrate: 1105 kb/s
  Stream #0:0: Video: hevc (Main 10), yuv420p10le(tv, bt709, progressive), 1920x1080 [SAR 1:1 DAR 16:9], 23.98 fps, 23.98 tbr, 1k tbn (default)
      Metadata:
        HANDLER_NAME    : VideoHandler
        VENDOR_ID       : [0][0][0][0]
        ENCODER         : Lavc61.19.100 libx265
        BPS             : 909477
        DURATION        : 00:23:49.552708333
        NUMBER_OF_FRAMES: 34275
        NUMBER_OF_BYTES : 162518199
        _STATISTICS_WRITING_APP: mkvpropedit v94.0 ('Initiate') 64-bit
        _STATISTICS_WRITING_DATE_UTC: 2026-03-28 11:01:14
        _STATISTICS_TAGS: BPS DURATION NUMBER_OF_FRAMES NUMBER_OF_BYTES
  Stream #0:1(eng): Audio: aac (LC), 48000 Hz, stereo, fltp (default)
      Metadata:
        HANDLER_NAME    : SoundHandler
        VENDOR_ID       : [0][0][0][0]
        ENCODER         : Lavc61.19.100 aac
        BPS             : 191620
        DURATION        : 00:23:49.635000000
        NUMBER_OF_FRAMES: 67015
        NUMBER_OF_BYTES : 34243489
        _STATISTICS_WRITING_APP: mkvpropedit v94.0 ('Initiate') 64-bit
        _STATISTICS_WRITING_DATE_UTC: 2026-03-28 11:01:14
        _STATISTICS_TAGS: BPS DURATION NUMBER_OF_FRAMES NUMBER_OF_BYTES
Input #1, mov,mp4,m4a,3gp,3g2,mj2, from 'F:\Аниме\Онгоинги\!_40_Осень_2025\JamClub\Младшая сестра моего друга досаждает\JamClub_Tomodachi_no_Imouto_ga_Ore_ni_dake_Uzai_08_1080p.mp4':
  Metadata:
    major_brand     : isom
    minor_version   : 512
    compatible_brands: isomiso2avc1mp41
    encoder         : Lavf60.16.100
  Duration: 00:23:49.64, start: 0.000000, bitrate: 4202 kb/s
  Stream #1:0[0x1](und): Video: h264 (High) (avc1 / 0x31637661), yuv420p(tv, bt709, progressive), 1920x1080 [SAR 1:1 DAR 16:9], 4004 kb/s, 23.98 fps, 23.98 tbr, 90k tbn (default)
      Metadata:
        handler_name    : VideoHandler
        vendor_id       : [0][0][0][0]
  Stream #1:1[0x2](eng): Audio: aac (LC) (mp4a / 0x6134706D), 48000 Hz, stereo, fltp, 191 kb/s (default)
      Metadata:
        handler_name    : SoundHandler
        vendor_id       : [0][0][0][0]
Stream mapping:
  Stream #0:0 (hevc) -> settb:default
  Stream #1:0 (h264) -> settb:default
  psnr:default -> Stream #0:0 (wrapped_avframe)
  Stream #0:1 -> #0:1 (aac (native) -> pcm_s16le (native))
Output #0, null, to 'pipe:':
  Metadata:
    COMPATIBLE_BRANDS: isomiso2avc1mp41
    MAJOR_BRAND     : isom
    MINOR_VERSION   : 512
    encoder         : Lavf61.7.100
  Stream #0:0: Video: wrapped_avframe, yuv420p10le(tv, bt709, progressive), 1920x1080 [SAR 1:1 DAR 16:9], q=2-31, 200 kb/s, 23.98 fps, 23.98 tbn
      Metadata:
        encoder         : Lavc61.19.100 wrapped_avframe
  Stream #0:1(eng): Audio: pcm_s16le, 48000 Hz, stereo, s16, 1536 kb/s (default)
      Metadata:
        HANDLER_NAME    : SoundHandler
        VENDOR_ID       : [0][0][0][0]
        _STATISTICS_TAGS: BPS DURATION NUMBER_OF_FRAMES NUMBER_OF_BYTES
        BPS             : 191620
        DURATION        : 00:23:49.635000000
        NUMBER_OF_FRAMES: 67015
        NUMBER_OF_BYTES : 34243489
        _STATISTICS_WRITING_APP: mkvpropedit v94.0 ('Initiate') 64-bit
        _STATISTICS_WRITING_DATE_UTC: 2026-03-28 11:01:14
        encoder         : Lavc61.19.100 pcm_s16le
frame=  110 fps=0.0 q=-0.0 size=N/A time=00:00:04.58 bitrate=N/A speed=9.04x    frame=  255 fps=247 q=-0.0 size=N/A time=00:00:10.63 bitrate=N/A speed=10.3x    frame=  415 fps=269 q=-0.0 size=N/A time=00:00:17.30 bitrate=N/A speed=11.2x    frame=  611 fps=297 q=-0.0 size=N/A time=00:00:25.48 bitrate=N/A speed=12.4x    frame=  816 fps=316 q=-0.0 size=N/A time=00:00:34.03 bitrate=N/A speed=13.2x    frame= 1024 fps=331 q=-0.0 size=N/A time=00:00:42.70 bitrate=N/A speed=13.8x    frame= 1221 fps=338 q=-0.0 size=N/A time=00:00:50.92 bitrate=N/A speed=14.1x    frame= 1415 fps=344 q=-0.0 size=N/A time=00:00:59.01 bitrate=N/A speed=14.3x    frame= 1615 fps=348 q=-0.0 size=N/A time=00:01:07.35 bitrate=N/A speed=14.5x    frame= 1826 fps=354 q=-0.0 size=N/A time=00:01:16.15 bitrate=N/A speed=14.8x    frame= 2017 fps=356 q=-0.0 size=N/A time=00:01:24.12 bitrate=N/A speed=14.8x    frame= 2212 fps=357 q=-0.0 size=N/A time=00:01:32.25 bitrate=N/A speed=14.9x    frame= 2350 fps=351 q=-0.0 size=N/A time=00:01:38.01 bitrate=N/A speed=14.6x    frame= 2498 fps=346 q=-0.0 size=N/A time=00:01:44.18 bitrate=N/A speed=14.4x    frame= 2669 fps=345 q=-0.0 size=N/A time=00:01:51.31 bitrate=N/A speed=14.4x    frame= 2829 fps=343 q=-0.0 size=N/A time=00:01:57.99 bitrate=N/A speed=14.3x    frame= 3005 fps=343 q=-0.0 size=N/A time=00:02:05.33 bitrate=N/A speed=14.3x    frame= 3166 fps=341 q=-0.0 size=N/A time=00:02:12.04 bitrate=N/A speed=14.2x    frame= 3346 fps=341 q=-0.0 size=N/A time=00:02:19.55 bitrate=N/A speed=14.2x    frame= 3524 fps=342 q=-0.0 size=N/A time=00:02:26.98 bitrate=N/A speed=14.3x    frame= 3675 fps=339 q=-0.0 size=N/A time=00:02:33.27 bitrate=N/A speed=14.2x    frame= 3806 fps=336 q=-0.0 size=N/A time=00:02:38.74 bitrate=N/A speed=  14x    frame= 3960 fps=334 q=-0.0 size=N/A time=00:02:45.16 bitrate=N/A speed=13.9x    frame= 4107 fps=332 q=-0.0 size=N/A time=00:02:51.29 bitrate=N/A speed=13.8x    frame= 4258 fps=330 q=-0.0 size=N/A time=00:02:57.59 bitrate=N/A speed=13.8x    frame= 4450 fps=332 q=-0.0 size=N/A time=00:03:05.60 bitrate=N/A speed=13.9x    frame= 4661 fps=335 q=-0.0 size=N/A time=00:03:14.40 bitrate=N/A speed=  14x    frame= 4866 fps=337 q=-0.0 size=N/A time=00:03:22.95 bitrate=N/A speed=14.1x    frame= 5074 fps=339 q=-0.0 size=N/A time=00:03:31.62 bitrate=N/A speed=14.2x    frame= 5269 fps=341 q=-0.0 size=N/A time=00:03:39.76 bitrate=N/A speed=14.2x    frame= 5461 fps=342 q=-0.0 size=N/A time=00:03:47.76 bitrate=N/A speed=14.2x    frame= 5659 fps=343 q=-0.0 size=N/A time=00:03:56.02 bitrate=N/A speed=14.3x    frame= 5854 fps=344 q=-0.0 size=N/A time=00:04:04.16 bitrate=N/A speed=14.4x    frame= 6045 fps=345 q=-0.0 size=N/A time=00:04:12.12 bitrate=N/A speed=14.4x    frame= 6233 fps=345 q=-0.0 size=N/A time=00:04:19.96 bitrate=N/A speed=14.4x    frame= 6427 fps=346 q=-0.0 size=N/A time=00:04:28.05 bitrate=N/A speed=14.4x    frame= 6625 fps=347 q=-0.0 size=N/A time=00:04:36.31 bitrate=N/A speed=14.5x    frame= 6827 fps=348 q=-0.0 size=N/A time=00:04:44.74 bitrate=N/A speed=14.5x    frame= 7036 fps=350 q=-0.0 size=N/A time=00:04:53.45 bitrate=N/A speed=14.6x    frame= 7235 fps=351 q=-0.0 size=N/A time=00:05:01.75 bitrate=N/A speed=14.6x    frame= 7427 fps=351 q=-0.0 size=N/A time=00:05:09.76 bitrate=N/A speed=14.7x    frame= 7617 fps=352 q=-0.0 size=N/A time=00:05:17.69 bitrate=N/A speed=14.7x    frame= 7818 fps=353 q=-0.0 size=N/A time=00:05:26.07 bitrate=N/A speed=14.7x    frame= 8009 fps=353 q=-0.0 size=N/A time=00:05:34.04 bitrate=N/A speed=14.7x    frame= 8198 fps=353 q=-0.0 size=N/A time=00:05:41.92 bitrate=N/A speed=14.7x    frame= 8386 fps=354 q=-0.0 size=N/A time=00:05:49.76 bitrate=N/A speed=14.7x    frame= 8586 fps=354 q=-0.0 size=N/A time=00:05:58.10 bitrate=N/A speed=14.8x    frame= 8783 fps=355 q=-0.0 size=N/A time=00:06:06.32 bitrate=N/A speed=14.8x    frame= 8960 fps=355 q=-0.0 size=N/A time=00:06:13.70 bitrate=N/A speed=14.8x    frame= 9173 fps=356 q=-0.0 size=N/A time=00:06:22.59 bitrate=N/A speed=14.8x    frame= 9373 fps=356 q=-0.0 size=N/A time=00:06:30.93 bitrate=N/A speed=14.9x    frame= 9569 fps=357 q=-0.0 size=N/A time=00:06:39.10 bitrate=N/A speed=14.9x    frame= 9758 fps=357 q=-0.0 size=N/A time=00:06:46.98 bitrate=N/A speed=14.9x    frame= 9945 fps=357 q=-0.0 size=N/A time=00:06:54.78 bitrate=N/A speed=14.9x    frame=10152 fps=358 q=-0.0 size=N/A time=00:07:03.42 bitrate=N/A speed=14.9x    frame=10359 fps=359 q=-0.0 size=N/A time=00:07:12.05 bitrate=N/A speed=  15x    frame=10554 fps=359 q=-0.0 size=N/A time=00:07:20.18 bitrate=N/A speed=  15x    frame=10749 fps=359 q=-0.0 size=N/A time=00:07:28.32 bitrate=N/A speed=  15x    frame=10944 fps=360 q=-0.0 size=N/A time=00:07:36.45 bitrate=N/A speed=  15x    frame=11134 fps=360 q=-0.0 size=N/A time=00:07:44.38 bitrate=N/A speed=  15x    frame=11340 fps=360 q=-0.0 size=N/A time=00:07:52.97 bitrate=N/A speed=  15x    frame=11534 fps=361 q=-0.0 size=N/A time=00:08:01.06 bitrate=N/A speed=  15x    frame=11726 fps=361 q=-0.0 size=N/A time=00:08:09.07 bitrate=N/A speed=  15x    frame=11931 fps=361 q=-0.0 size=N/A time=00:08:17.62 bitrate=N/A speed=15.1x    frame=12138 fps=362 q=-0.0 size=N/A time=00:08:26.25 bitrate=N/A speed=15.1x    frame=12330 fps=362 q=-0.0 size=N/A time=00:08:34.26 bitrate=N/A speed=15.1x    frame=12536 fps=363 q=-0.0 size=N/A time=00:08:42.85 bitrate=N/A speed=15.1x    frame=12726 fps=363 q=-0.0 size=N/A time=00:08:50.78 bitrate=N/A speed=15.1x    frame=12930 fps=363 q=-0.0 size=N/A time=00:08:59.28 bitrate=N/A speed=15.2x    frame=13128 fps=364 q=-0.0 size=N/A time=00:09:07.54 bitrate=N/A speed=15.2x    frame=13337 fps=364 q=-0.0 size=N/A time=00:09:16.26 bitrate=N/A speed=15.2x    frame=13528 fps=364 q=-0.0 size=N/A time=00:09:24.23 bitrate=N/A speed=15.2x    frame=13728 fps=365 q=-0.0 size=N/A time=00:09:32.57 bitrate=N/A speed=15.2x    frame=13924 fps=365 q=-0.0 size=N/A time=00:09:40.74 bitrate=N/A speed=15.2x    frame=14122 fps=365 q=-0.0 size=N/A time=00:09:49.00 bitrate=N/A speed=15.2x    frame=14318 fps=365 q=-0.0 size=N/A time=00:09:57.17 bitrate=N/A speed=15.2x    frame=14497 fps=365 q=-0.0 size=N/A time=00:10:04.64 bitrate=N/A speed=15.2x    frame=14697 fps=365 q=-0.0 size=N/A time=00:10:12.98 bitrate=N/A speed=15.2x    frame=14898 fps=366 q=-0.0 size=N/A time=00:10:21.37 bitrate=N/A speed=15.2x    frame=15101 fps=366 q=-0.0 size=N/A time=00:10:29.83 bitrate=N/A speed=15.3x    frame=15305 fps=366 q=-0.0 size=N/A time=00:10:38.34 bitrate=N/A speed=15.3x    frame=15509 fps=367 q=-0.0 size=N/A time=00:10:46.85 bitrate=N/A speed=15.3x    frame=15695 fps=367 q=-0.0 size=N/A time=00:10:54.61 bitrate=N/A speed=15.3x    frame=15883 fps=367 q=-0.0 size=N/A time=00:11:02.45 bitrate=N/A speed=15.3x    frame=16065 fps=366 q=-0.0 size=N/A time=00:11:10.04 bitrate=N/A speed=15.3x    frame=16248 fps=366 q=-0.0 size=N/A time=00:11:17.67 bitrate=N/A speed=15.3x    frame=16426 fps=366 q=-0.0 size=N/A time=00:11:25.10 bitrate=N/A speed=15.3x    frame=16622 fps=366 q=-0.0 size=N/A time=00:11:33.27 bitrate=N/A speed=15.3x    frame=16810 fps=366 q=-0.0 size=N/A time=00:11:41.11 bitrate=N/A speed=15.3x    frame=17011 fps=366 q=-0.0 size=N/A time=00:11:49.50 bitrate=N/A speed=15.3x    frame=17203 fps=366 q=-0.0 size=N/A time=00:11:57.50 bitrate=N/A speed=15.3x    frame=17386 fps=366 q=-0.0 size=N/A time=00:12:05.14 bitrate=N/A speed=15.3x    frame=17574 fps=366 q=-0.0 size=N/A time=00:12:12.98 bitrate=N/A speed=15.3x    frame=17786 fps=367 q=-0.0 size=N/A time=00:12:21.82 bitrate=N/A speed=15.3x    frame=17987 fps=367 q=-0.0 size=N/A time=00:12:30.20 bitrate=N/A speed=15.3x    frame=18195 fps=367 q=-0.0 size=N/A time=00:12:38.88 bitrate=N/A speed=15.3x    frame=18401 fps=368 q=-0.0 size=N/A time=00:12:47.47 bitrate=N/A speed=15.3x    frame=18601 fps=368 q=-0.0 size=N/A time=00:12:55.81 bitrate=N/A speed=15.3x    frame=18793 fps=368 q=-0.0 size=N/A time=00:13:03.82 bitrate=N/A speed=15.4x    frame=18982 fps=368 q=-0.0 size=N/A time=00:13:11.70 bitrate=N/A speed=15.4x    frame=19180 fps=368 q=-0.0 size=N/A time=00:13:19.96 bitrate=N/A speed=15.4x    frame=19372 fps=368 q=-0.0 size=N/A time=00:13:27.97 bitrate=N/A speed=15.4x    frame=19569 fps=368 q=-0.0 size=N/A time=00:13:36.19 bitrate=N/A speed=15.4x    frame=19769 fps=368 q=-0.0 size=N/A time=00:13:44.53 bitrate=N/A speed=15.4x    frame=19970 fps=369 q=-0.0 size=N/A time=00:13:52.91 bitrate=N/A speed=15.4x    frame=20163 fps=369 q=-0.0 size=N/A time=00:14:00.96 bitrate=N/A speed=15.4x    frame=20361 fps=369 q=-0.0 size=N/A time=00:14:09.22 bitrate=N/A speed=15.4x    frame=20557 fps=369 q=-0.0 size=N/A time=00:14:17.39 bitrate=N/A speed=15.4x    frame=20757 fps=369 q=-0.0 size=N/A time=00:14:25.73 bitrate=N/A speed=15.4x    frame=20945 fps=369 q=-0.0 size=N/A time=00:14:33.58 bitrate=N/A speed=15.4x    frame=21145 fps=369 q=-0.0 size=N/A time=00:14:41.92 bitrate=N/A speed=15.4x    frame=21327 fps=369 q=-0.0 size=N/A time=00:14:49.51 bitrate=N/A speed=15.4x    frame=21513 fps=369 q=-0.0 size=N/A time=00:14:57.27 bitrate=N/A speed=15.4x    frame=21656 fps=368 q=-0.0 size=N/A time=00:15:03.23 bitrate=N/A speed=15.4x    frame=21836 fps=368 q=-0.0 size=N/A time=00:15:10.74 bitrate=N/A speed=15.4x    frame=22000 fps=368 q=-0.0 size=N/A time=00:15:17.58 bitrate=N/A speed=15.3x    frame=22168 fps=367 q=-0.0 size=N/A time=00:15:24.59 bitrate=N/A speed=15.3x    frame=22347 fps=367 q=-0.0 size=N/A time=00:15:32.05 bitrate=N/A speed=15.3x    frame=22510 fps=367 q=-0.0 size=N/A time=00:15:38.85 bitrate=N/A speed=15.3x    frame=22702 fps=367 q=-0.0 size=N/A time=00:15:46.86 bitrate=N/A speed=15.3x    frame=22897 fps=367 q=-0.0 size=N/A time=00:15:54.99 bitrate=N/A speed=15.3x    frame=23083 fps=367 q=-0.0 size=N/A time=00:16:02.75 bitrate=N/A speed=15.3x    frame=23258 fps=367 q=-0.0 size=N/A time=00:16:10.05 bitrate=N/A speed=15.3x    frame=23468 fps=367 q=-0.0 size=N/A time=00:16:18.81 bitrate=N/A speed=15.3x    frame=23670 fps=367 q=-0.0 size=N/A time=00:16:27.23 bitrate=N/A speed=15.3x    frame=23878 fps=367 q=-0.0 size=N/A time=00:16:35.91 bitrate=N/A speed=15.3x    frame=24070 fps=368 q=-0.0 size=N/A time=00:16:43.91 bitrate=N/A speed=15.3x    frame=24285 fps=368 q=-0.0 size=N/A time=00:16:52.88 bitrate=N/A speed=15.3x    frame=24482 fps=368 q=-0.0 size=N/A time=00:17:01.10 bitrate=N/A speed=15.3x    frame=24681 fps=368 q=-0.0 size=N/A time=00:17:09.40 bitrate=N/A speed=15.4x    frame=24884 fps=368 q=-0.0 size=N/A time=00:17:17.87 bitrate=N/A speed=15.4x    frame=25099 fps=369 q=-0.0 size=N/A time=00:17:26.83 bitrate=N/A speed=15.4x    frame=25289 fps=369 q=-0.0 size=N/A time=00:17:34.76 bitrate=N/A speed=15.4x    frame=25472 fps=368 q=-0.0 size=N/A time=00:17:42.39 bitrate=N/A speed=15.4x    frame=25655 fps=368 q=-0.0 size=N/A time=00:17:50.02 bitrate=N/A speed=15.4x    frame=25856 fps=369 q=-0.0 size=N/A time=00:17:58.41 bitrate=N/A speed=15.4x    frame=26062 fps=369 q=-0.0 size=N/A time=00:18:07.00 bitrate=N/A speed=15.4x    frame=26252 fps=369 q=-0.0 size=N/A time=00:18:14.92 bitrate=N/A speed=15.4x    frame=26449 fps=369 q=-0.0 size=N/A time=00:18:23.14 bitrate=N/A speed=15.4x    frame=26660 fps=369 q=-0.0 size=N/A time=00:18:31.94 bitrate=N/A speed=15.4x    frame=26839 fps=369 q=-0.0 size=N/A time=00:18:39.40 bitrate=N/A speed=15.4x    frame=27030 fps=369 q=-0.0 size=N/A time=00:18:47.37 bitrate=N/A speed=15.4x    frame=27205 fps=369 q=-0.0 size=N/A time=00:18:54.67 bitrate=N/A speed=15.4x    frame=27387 fps=369 q=-0.0 size=N/A time=00:19:02.26 bitrate=N/A speed=15.4x    frame=27569 fps=369 q=-0.0 size=N/A time=00:19:09.85 bitrate=N/A speed=15.4x    frame=27751 fps=369 q=-0.0 size=N/A time=00:19:17.44 bitrate=N/A speed=15.4x    frame=27951 fps=369 q=-0.0 size=N/A time=00:19:25.78 bitrate=N/A speed=15.4x    frame=28156 fps=369 q=-0.0 size=N/A time=00:19:34.33 bitrate=N/A speed=15.4x    frame=28352 fps=369 q=-0.0 size=N/A time=00:19:42.51 bitrate=N/A speed=15.4x    frame=28539 fps=369 q=-0.0 size=N/A time=00:19:50.31 bitrate=N/A speed=15.4x    frame=28727 fps=369 q=-0.0 size=N/A time=00:19:58.15 bitrate=N/A speed=15.4x    frame=28923 fps=369 q=-0.0 size=N/A time=00:20:06.33 bitrate=N/A speed=15.4x    frame=29124 fps=369 q=-0.0 size=N/A time=00:20:14.71 bitrate=N/A speed=15.4x    frame=29313 fps=369 q=-0.0 size=N/A time=00:20:22.59 bitrate=N/A speed=15.4x    frame=29500 fps=369 q=-0.0 size=N/A time=00:20:30.39 bitrate=N/A speed=15.4x    frame=29700 fps=369 q=-0.0 size=N/A time=00:20:38.73 bitrate=N/A speed=15.4x    frame=29904 fps=369 q=-0.0 size=N/A time=00:20:47.24 bitrate=N/A speed=15.4x    frame=30111 fps=369 q=-0.0 size=N/A time=00:20:55.92 bitrate=N/A speed=15.4x    frame=30315 fps=370 q=-0.0 size=N/A time=00:21:04.38 bitrate=N/A speed=15.4x    frame=30525 fps=370 q=-0.0 size=N/A time=00:21:13.14 bitrate=N/A speed=15.4x    frame=30720 fps=370 q=-0.0 size=N/A time=00:21:21.28 bitrate=N/A speed=15.4x    frame=30918 fps=370 q=-0.0 size=N/A time=00:21:29.53 bitrate=N/A speed=15.4x    frame=31107 fps=370 q=-0.0 size=N/A time=00:21:37.42 bitrate=N/A speed=15.4x    frame=31301 fps=370 q=-0.0 size=N/A time=00:21:45.51 bitrate=N/A speed=15.4x    frame=31497 fps=370 q=-0.0 size=N/A time=00:21:53.68 bitrate=N/A speed=15.4x    frame=31688 fps=370 q=-0.0 size=N/A time=00:22:01.65 bitrate=N/A speed=15.4x    frame=31876 fps=370 q=-0.0 size=N/A time=00:22:09.49 bitrate=N/A speed=15.4x    frame=32081 fps=370 q=-0.0 size=N/A time=00:22:18.04 bitrate=N/A speed=15.4x    frame=32259 fps=370 q=-0.0 size=N/A time=00:22:25.46 bitrate=N/A speed=15.4x    frame=32450 fps=370 q=-0.0 size=N/A time=00:22:33.43 bitrate=N/A speed=15.4x    frame=32640 fps=370 q=-0.0 size=N/A time=00:22:41.36 bitrate=N/A speed=15.4x    frame=32825 fps=370 q=-0.0 size=N/A time=00:22:49.07 bitrate=N/A speed=15.4x    frame=33011 fps=370 q=-0.0 size=N/A time=00:22:56.83 bitrate=N/A speed=15.4x    frame=33195 fps=370 q=-0.0 size=N/A time=00:23:04.50 bitrate=N/A speed=15.4x    frame=33369 fps=370 q=-0.0 size=N/A time=00:23:11.76 bitrate=N/A speed=15.4x    frame=33545 fps=370 q=-0.0 size=N/A time=00:23:19.10 bitrate=N/A speed=15.4x    frame=33734 fps=370 q=-0.0 size=N/A time=00:23:26.98 bitrate=N/A speed=15.4x    frame=33916 fps=369 q=-0.0 size=N/A time=00:23:34.57 bitrate=N/A speed=15.4x    frame=34088 fps=369 q=-0.0 size=N/A time=00:23:41.75 bitrate=N/A speed=15.4x    frame=34221 fps=369 q=-0.0 size=N/A time=00:23:47.30 bitrate=N/A speed=15.4x    [Parsed_psnr_16 @ 000001af084bfb40] PSNR y:48.656263 u:51.065069 v:50.613246 average:49.268138 min:37.690439 max:inf
[out#0/null @ 000001af04ceae00] video:14728KiB audio:268060KiB subtitle:0KiB other streams:0KiB global headers:0KiB muxing overhead: unknown
frame=34275 fps=369 q=-0.0 Lsize=N/A time=00:23:49.55 bitrate=N/A speed=15.4x    
